<?xml version="1.0" encoding="utf-8"?>
<!-- Generator: Adobe Illustrator 16.0.0, SVG Export Plug-In . SVG Version: 6.00 Build 0)  -->
<!DOCTYPE svg PUBLIC "-//W3C//DTD SVG 1.1//EN" "http://www.w3.org/Graphics/SVG/1.1/DTD/svg11.dtd">
<svg version="1.1" id="Layer_1" xmlns="http://www.w3.org/2000/svg" xmlns:xlink="http://www.w3.org/1999/xlink" x="0px" y="0px"
	 width="24px" height="24px" viewBox="0 0 24 24" enable-background="new 0 0 24 24" xml:space="preserve">
<path fill="#2196F3" d="M19,2h-4.18C14.4,0.84,13.3,0,12,0S9.6,0.84,9.18,2H5C3.9,2,3,2.9,3,4v16c0,1.1,0.9,2,2,2h14
	c1.1,0,2-0.9,2-2V4C21,2.9,20.1,2,19,2z M12,2c0.55,0,1,0.45,1,1s-0.45,1-1,1s-1-0.45-1-1S11.45,2,12,2z M19,20H5V4h2v3h10V4h2V20z"
	/>
<path fill="none" d="M0,0h24v24H0V0z"/>
<image overflow="visible" width="24" height="24" xlink:href="overview.png"  transform="matrix(1 0 0 1 -46 0.2568)">
</image>
</svg>
